<?xml version="1.0" encoding="iso-8859-1"?>
<!-- Generator: Adobe Illustrator 19.0.0, SVG Export Plug-In . SVG Version: 6.00 Build 0)  -->
<svg version="1.1" id="Capa_1" xmlns="http://www.w3.org/2000/svg" xmlns:xlink="http://www.w3.org/1999/xlink" x="0px" y="0px"
	 viewBox="0 0 512.006 512.006" style="enable-background:new 0 0 512.006 512.006;" xml:space="preserve">
<g>
	<g>
		<path d="M510.815,235.357l-68.15-179.875c-2.72-7.158-9.571-11.891-17.226-11.891H86.561c-7.655,0-14.513,4.733-17.226,11.891
			L1.191,235.357C0.405,237.445,0,239.655,0,241.883V437.72c0,16.925,13.77,30.695,30.695,30.695h450.609
			c16.925,0,30.695-13.77,30.702-30.695V241.883C512.006,239.655,511.601,237.445,510.815,235.357z M99.275,80.425h313.45
			l54.423,143.655h-94.505c-7.367,0-14.028,4.389-16.932,11.161l-32.052,74.786H188.335l-32.052-74.786
			c-2.898-6.771-9.559-11.161-16.925-11.161H44.858L99.275,80.425z M475.165,431.581H36.835V260.914h90.38l32.052,74.786
			c2.898,6.771,9.559,11.161,16.925,11.161h159.616c7.367,0,14.028-4.383,16.932-11.155l32.052-74.793h90.374V431.581z"/>
	</g>
</g>
<g>
	<g>
		<path d="M345.477,118.776c-6.618-7.717-18.251-8.601-25.962-1.983l-86.739,74.424l-39.505-38.099
			c-7.324-7.06-18.982-6.845-26.042,0.473c-7.06,7.324-6.845,18.982,0.473,26.042l51.568,49.727
			c3.561,3.426,8.171,5.157,12.788,5.157c4.26,0,8.533-1.473,11.983-4.439l99.453-85.333
			C351.217,138.12,352.101,126.493,345.477,118.776z"/>
	</g>
</g>
<g>
</g>
<g>
</g>
<g>
</g>
<g>
</g>
<g>
</g>
<g>
</g>
<g>
</g>
<g>
</g>
<g>
</g>
<g>
</g>
<g>
</g>
<g>
</g>
<g>
</g>
<g>
</g>
<g>
</g>
</svg>
